<?xml version="1.0" encoding="utf-8"?>
<!-- Generator: Adobe Illustrator 25.2.3, SVG Export Plug-In . SVG Version: 6.00 Build 0)  -->
<svg version="1.1" id="圖層_2_1_" xmlns="http://www.w3.org/2000/svg" xmlns:xlink="http://www.w3.org/1999/xlink" x="0px"
	 y="0px" viewBox="0 0 212.6 212.6" style="enable-background:new 0 0 212.6 212.6;" xml:space="preserve">
<style type="text/css">
	.st0{fill:none;stroke:#7C7C7C;stroke-width:5.2346;stroke-linecap:round;stroke-linejoin:round;stroke-miterlimit:10;}
	.st1{fill:#7C7C7C;}
</style>
<path class="st0" d="M101.6,80.7l0-57.4c0-8.8,7.5-16.1,16.8-16.1h72.7c9.2,0,16.8,7.2,16.8,16.1l-0.1,157.3
	c0,8.8-7.5,16.1-16.8,16.1h-72.7c-5.1,0-9.6-2.2-12.7-5.6"/>
<path class="st1" d="M164.4,177.3H145c-0.3,0-0.6-0.2-0.6-0.6v-3.8c0-0.3,0.2-0.6,0.6-0.6h19.5c0.3,0,0.6,0.2,0.6,0.6v3.8
	C165,177,164.8,177.3,164.4,177.3z"/>
<line class="st0" x1="137" y1="155.7" x2="207.4" y2="155.7"/>
<g>
	<path class="st0" d="M15,94c-5.8,0-10.5,4.7-10.5,10.5v61.4c0,5.8,4.7,10.5,10.5,10.5h103c5.8,0,10.5-4.7,10.5-10.5v-61.4
		c0-5.8-4.8-10.5-10.5-10.5H15z"/>
	<line class="st0" x1="5.2" y1="128.8" x2="115.9" y2="128.8"/>
	<path class="st0" d="M40.6,157.6H25.3c-2.6,0-4.8-2.1-4.8-4.8v-4.3c0-2.6,2.1-4.8,4.8-4.8h15.3c2.6,0,4.8,2.1,4.8,4.8v4.3
		C45.4,155.5,43.3,157.6,40.6,157.6z"/>
	<line class="st0" x1="90.3" y1="145.2" x2="111" y2="145.2"/>
	<line class="st0" x1="90.3" y1="153.7" x2="111" y2="153.7"/>
</g>
<rect x="128.6" y="45.5" class="st0" width="20.8" height="20.8"/>
<rect x="136.3" y="53.3" class="st1" width="5.2" height="5.2"/>
<rect x="159" y="74.2" class="st0" width="20.8" height="20.8"/>
<rect x="166.8" y="82" class="st1" width="5.2" height="5.2"/>
<g>
	<rect x="128" y="73.4" class="st1" width="5.2" height="5.2"/>
	<rect x="128" y="83.4" class="st1" width="5.2" height="5.2"/>
	<rect x="133.1" y="88.1" class="st1" width="5.2" height="5.2"/>
	<rect x="145.7" y="88.2" class="st1" width="5.2" height="5.2"/>
	<polygon class="st1" points="144.9,73.3 144.9,78.4 132.8,78.4 132.8,83.7 144.9,83.7 145.1,83.7 151,83.7 151,73.3 	"/>
</g>
<g>
	<rect x="157.9" y="45" class="st1" width="5.2" height="5.2"/>
	<rect x="157.9" y="55" class="st1" width="5.2" height="5.2"/>
	<rect x="163" y="59.7" class="st1" width="5.2" height="5.2"/>
	<rect x="175.6" y="59.8" class="st1" width="5.2" height="5.2"/>
	<polygon class="st1" points="174.8,44.9 174.8,50.1 162.7,50.1 162.7,55.3 174.8,55.3 174.9,55.3 180.8,55.3 180.8,44.9 	"/>
</g>
</svg>
