<?xml version="1.0" encoding="utf-8"?>
<!-- Generator: Adobe Illustrator 25.2.3, SVG Export Plug-In . SVG Version: 6.00 Build 0)  -->
<svg version="1.1" id="圖層_2_1_" xmlns="http://www.w3.org/2000/svg" xmlns:xlink="http://www.w3.org/1999/xlink" x="0px"
	 y="0px" viewBox="0 0 212.6 212.6" style="enable-background:new 0 0 212.6 212.6;" xml:space="preserve">
<style type="text/css">
	.st0{fill:none;stroke:#7C7C7C;stroke-width:5.2346;stroke-linecap:round;stroke-linejoin:round;stroke-miterlimit:10;}
	.st1{fill:#7C7C7C;}
	.st2{fill:none;stroke:#7C7C7C;stroke-width:3;stroke-linecap:round;stroke-linejoin:round;stroke-miterlimit:10;}
	.st3{fill:none;stroke:#7C7C7C;stroke-width:5.0025;stroke-linecap:round;stroke-linejoin:round;stroke-miterlimit:10;}
	.st4{fill:none;stroke:#7C7C7C;stroke-width:5.539;stroke-linecap:round;stroke-linejoin:round;stroke-miterlimit:10;}
</style>
<circle class="st0" cx="166.7" cy="170.2" r="33.7"/>
<path class="st0" d="M166.7,170.2l-23.3-69.6c-0.9-2.8-3.6-4.7-6.5-4.7h-13.7"/>
<path class="st0" d="M102,171.9H80.4H53.6c0,0-15,1-21.1-16c-1.8-4.9-15.5-4.1-15.5-4.1s-6.2,1.5-5.2-4.6l0.5-3.1l15-2.1l7.2-2.7
	c4.2-1.9,8.9-3,13.9-3c18.6,0,33.7,15.1,33.7,33.7S67,203.7,48.4,203.7s-33.8-14.9-33.8-33.5c0-7.5,2.1-12.6,6.2-18.2"/>
<path class="st0" d="M147.4,124c0,0-19.1,13.9-25.8,27.3c-1.1,2.2-2.2,4.2-3.4,6.1"/>
<circle class="st1" cx="168" cy="171.5" r="6.7"/>
<circle class="st1" cx="48.9" cy="172.5" r="6.7"/>
<path class="st2" d="M63.9,143.6"/>
<path class="st0" d="M150.8,105.3c0,0,31-3.7,31,2.2s-3.4,19.9-3.4,19.9l-17.5,0.8"/>
<polyline class="st3" points="92.5,168.1 77,123.3 61.9,139.2 "/>
<path class="st3" d="M108.4,185.1H96.1c-0.6,0-1.1-0.5-1.1-1.1v-0.4c0-0.6,0.5-1.1,1.1-1.1h12.3c0.6,0,1.1,0.5,1.1,1.1v0.4
	C109.5,184.6,109,185.1,108.4,185.1z"/>
<line class="st3" x1="100.4" y1="172.5" x2="101" y2="180.1"/>
<circle class="st4" cx="104.7" cy="36.5" r="12.2"/>
<path class="st4" d="M148.3,84.7l-27.8-3.5c0,0-20.9-26.1-28.7-27c-7.8-0.9-10.4,0-16.5,10.4S56.9,98.6,56.9,98.6s-5.2,13.9,13,21.7
	l31.3,12.2l-0.9,40c0,0,5.2,7.8,9.6,5.2c4.3-2.6,5-46.5,5-46.5s1-13-13.9-15.8c-8.7-1.6-18.7-10.1-18.7-10.1l13.9-25.2
	c0,0,15.4,14,20.7,14.9c5.2,0.9,30.4,0,30.4,0S153.5,83.8,148.3,84.7z"/>
</svg>
