<?xml version="1.0" encoding="utf-8"?>
<!-- Generator: Adobe Illustrator 25.2.3, SVG Export Plug-In . SVG Version: 6.00 Build 0)  -->
<svg version="1.1" id="圖層_2_1_" xmlns="http://www.w3.org/2000/svg" xmlns:xlink="http://www.w3.org/1999/xlink" x="0px"
	 y="0px" viewBox="0 0 212.6 212.6" style="enable-background:new 0 0 212.6 212.6;" xml:space="preserve">
<style type="text/css">
	.st0{fill:none;stroke:#7C7C7C;stroke-width:5.2346;stroke-linecap:round;stroke-linejoin:round;stroke-miterlimit:10;}
</style>
<path class="st0" d="M82.8,84.8V68.5c0-12.7,11.2-23,25.1-23s25.1,10.3,25.1,23v14.3"/>
<path class="st0" d="M65.3,84.1V64.2c0-21.3,19.1-38.6,42.6-38.6s42.6,17.3,42.6,38.6v21.3"/>
<path class="st0" d="M111.2,185.1h-10.3c-26.9,0-48.7-21.8-48.7-48.7V94.3c0-4.9,4-8.8,8.8-8.8h90c4.9,0,8.8,4,8.8,8.8v42.2
	C159.9,163.3,138.1,185.1,111.2,185.1z"/>
<circle class="st0" cx="105.3" cy="126.2" r="14.6"/>
<line class="st0" x1="106.1" y1="163.3" x2="106.1" y2="142.1"/>
</svg>
